<svg xmlns="http://www.w3.org/2000/svg" viewBox="0 0 993 339.38"><defs><style>.light{fill:#ff8f00}</style></defs><path d="M123.71 6.49 0 133.43l108.34 109.85v-50.41l-19.2-18.92 34.57-33.6V91.77l-58.27 58.77-17.39-17.39 75.66-76.82L249.1 179.88v-49.13z" class="light"/><path d="m0 204.25 123.71 128.64 125.81-130.95L138.16 90.27v49.05l62.59 61.92-45.92 46.2v-86.38l-31.12 33.35v84.73L0 154.11z" class="light"/><path d="M326.26 144.5a4.08 4.08 0 0 1-4.08-4.08V29.75a4.12 4.12 0 0 1 1.2-3.06 3.92 3.92 0 0 1 2.88-1.19H400a4.2 4.2 0 0 1 3.07 1.19 4.14 4.14 0 0 1 1.18 3.06v11.9a3.85 3.85 0 0 1-1.18 3 4.33 4.33 0 0 1-3.07 1.11h-54.54v32.3h51.18a4.08 4.08 0 0 1 4.25 3.9v12.25a4 4 0 0 1-1.19 2.89 4.17 4.17 0 0 1-3.06 1.19h-51.18v42.16a4 4 0 0 1-1.18 2.89 4.2 4.2 0 0 1-3.07 1.19Zm102.2 0a4.06 4.06 0 0 1-4.08-4V29.75a4.15 4.15 0 0 1 1.19-3.06 4 4 0 0 1 2.89-1.19h41.48q17.18 0 28.31 5.27a36.45 36.45 0 0 1 16.83 15.64q5.7 10.37 5.86 25.33.34 7.49.34 13.26t-.34 13.09q-.33 15.81-5.78 26.09a33.92 33.92 0 0 1-16.4 15.3q-11 5-28 5ZM448 125h21.93q9.53 0 15.47-2.72a17.32 17.32 0 0 0 8.76-8.76q2.81-6 3-15.89c.12-3.4.2-6.38.26-8.93s.05-5.1 0-7.65-.14-5.46-.26-8.75q-.33-13.94-7-20.57t-21.08-6.63H448Zm184.94 21.2q-15.81 0-26.77-5.53a38.55 38.55 0 0 1-16.71-15.81q-5.78-10.27-6.46-24.73-.16-7-.17-15t.17-15.3q.68-14.28 6.55-24.65a39.1 39.1 0 0 1 16.83-15.9q11-5.52 26.6-5.52a65.4 65.4 0 0 1 20.74 3.06 48 48 0 0 1 15.6 8.44 38.5 38.5 0 0 1 10 12.5 35.7 35.7 0 0 1 3.77 15.5 2.86 2.86 0 0 1-.93 2.55 3.8 3.8 0 0 1-2.64 1h-16.15a4.73 4.73 0 0 1-3.06-.94 5.34 5.34 0 0 1-1.7-3.14q-2.72-11.22-9.35-15.3t-16.49-4.08q-11.38 0-18.19 6.37t-7.31 21q-.51 13.94 0 28.56t7.31 21q6.79 6.38 18.19 6.38 9.86 0 16.58-4.17t9.26-15.23a4.31 4.31 0 0 1 4.51-4.1h16.4a3.8 3.8 0 0 1 2.64 1 2.86 2.86 0 0 1 .93 2.55 35.8 35.8 0 0 1-3.74 15.53 38.5 38.5 0 0 1-10 12.49 47.9 47.9 0 0 1-15.64 8.42 65.3 65.3 0 0 1-20.77 3.05m107.44 0q-13.61 0-22.87-4.76A33 33 0 0 1 703.4 128a46.34 46.34 0 0 1-5.52-20.23c-.12-2-.17-4.53-.17-7.48s0-5.44.17-7.48a45 45 0 0 1 5.69-20.32 34.3 34.3 0 0 1 14.28-13.34q9.27-4.75 22.53-4.76t22.52 4.76a34.16 34.16 0 0 1 14.28 13.35 44.9 44.9 0 0 1 5.7 20.32q.17 3.06.17 7.48t-.17 7.48a46.5 46.5 0 0 1-5.53 20.22 33 33 0 0 1-14.11 13.43q-9.24 4.77-22.86 4.77m0-16.83q9 0 13.94-5.7t5.44-16.74c.11-1.7.16-3.91.17-6.63s0-4.93-.17-6.63q-.51-11.06-5.44-16.75t-13.94-5.66q-9 0-13.94 5.69T721 93.7c-.12 1.7-.17 3.91-.17 6.63s0 4.93.17 6.63q.51 11.06 5.44 16.74t13.94 5.67m94.35 16.83a38.1 38.1 0 0 1-15.56-3 29.35 29.35 0 0 1-11.17-8.41 39 39 0 0 1-6.8-12.84 60 60 0 0 1-2.72-16.23c-.12-2-.17-3.88-.17-5.53s0-3.48.17-5.52a60.2 60.2 0 0 1 2.63-15.81A38.5 38.5 0 0 1 808 66a30.7 30.7 0 0 1 11.22-8.58 37.15 37.15 0 0 1 15.56-3.06 35 35 0 0 1 15.55 3.14 33.4 33.4 0 0 1 10.63 8.08v-37.7A4.07 4.07 0 0 1 862 25a3.88 3.88 0 0 1 3-1.19h14.45a4.06 4.06 0 0 1 4.08 4v112.61a4.06 4.06 0 0 1-4 4.08H866a3.88 3.88 0 0 1-3-1.19 4.07 4.07 0 0 1-1.1-2.89v-6.29a33.6 33.6 0 0 1-10.8 8.67q-6.51 3.39-16.37 3.4M841 128q7.14 0 11.39-3.23a19.26 19.26 0 0 0 6.29-8.25 29.7 29.7 0 0 0 2.21-10.27c.11-2 .16-4.22.17-6.55s-.05-4.51-.17-6.54a24.9 24.9 0 0 0-2.38-9.78 19.94 19.94 0 0 0-6.46-7.73Q847.81 72.6 841 72.6q-7.14 0-11.31 3.14a17.7 17.7 0 0 0-6 8.25 38.3 38.3 0 0 0-2.25 11.21q-.18 5.1 0 10.2a38.4 38.4 0 0 0 2.21 11.22 17.6 17.6 0 0 0 6 8.24Q833.89 128 841 128m103.21 18.2q-18.87 0-29.92-10.88t-11.9-30.94a42 42 0 0 1-.17-4.34 39 39 0 0 1 .17-4.16q.68-12.91 5.86-22.19a36 36 0 0 1 14.37-14.28q9.18-5 21.59-5 13.77 0 23.12 5.69a36.2 36.2 0 0 1 14.13 15.8 54.4 54.4 0 0 1 4.76 23.38v3.57a4 4 0 0 1-1.19 2.89 4.15 4.15 0 0 1-3.06 1.19h-56.46v1.33a29.9 29.9 0 0 0 2.29 11 19 19 0 0 0 6.29 8.08 16.35 16.35 0 0 0 10 3.06 18.93 18.93 0 0 0 13.26-4.76 22 22 0 0 0 2.89-3.06 8.2 8.2 0 0 1 2.46-2.47 7.1 7.1 0 0 1 2.81-.42h14.62a4 4 0 0 1 2.8 1 2.86 2.86 0 0 1 .94 2.55c-.12 1.81-1 4-2.81 6.63a33.3 33.3 0 0 1-7.56 7.65 42.7 42.7 0 0 1-12.33 6.2 53.6 53.6 0 0 1-16.96 2.48m-18.7-53.55h37.57v-.51a28.8 28.8 0 0 0-2.21-11.65 17.67 17.67 0 0 0-6.46-7.82 20 20 0 0 0-20.4 0 17.1 17.1 0 0 0-6.38 7.82 29.75 29.75 0 0 0-2.12 11.65ZM364.28 296.2q-15.81 0-26.43-4.68t-16.15-12.26a28.5 28.5 0 0 1-5.87-15.89 3.49 3.49 0 0 1 3.41-3.57h15.29a5 5 0 0 1 3.32.93 10 10 0 0 1 1.95 2.3 17.1 17.1 0 0 0 3.91 6.37 21.44 21.44 0 0 0 7.91 5.19 33.7 33.7 0 0 0 12.66 2q12.24 0 18.28-4.08a12.7 12.7 0 0 0 6-11.05 10.26 10.26 0 0 0-3.23-7.91q-3.22-3-9.94-5.44a174 174 0 0 0-17.77-5.18 98.7 98.7 0 0 1-21.33-7.4 32.33 32.33 0 0 1-12.92-11Q319 217.9 319 207.7a29.8 29.8 0 0 1 5.43-17.44 36 36 0 0 1 15.26-12q9.94-4.42 23.71-4.42a59.3 59.3 0 0 1 19.55 3 43.3 43.3 0 0 1 14.11 7.82 37.3 37.3 0 0 1 8.62 10.34 24.4 24.4 0 0 1 3.14 10.8 3.7 3.7 0 0 1-.93 2.46 3.31 3.31 0 0 1-2.64 1.11h-15.79a6 6 0 0 1-2.72-.68 5 5 0 0 1-2.21-2.55q-1-5.26-6.63-9t-14.44-3.82q-9.18 0-14.79 3.4T343 207.26a11.44 11.44 0 0 0 2.81 7.9q2.81 3.15 9 5.53a168 168 0 0 0 16.4 5.1 118.8 118.8 0 0 1 23.64 7.47q9.18 4.25 13.43 10.79t4.25 16.58q0 11.22-6 19.12t-16.92 12.16q-10.87 4.27-25.33 4.29M470 294.5q-10.2 0-17.17-3.57a22.73 22.73 0 0 1-10.39-10.67q-3.4-7-3.4-17.59v-38.55h-13.39a4 4 0 0 1-2.89-1.19 4.15 4.15 0 0 1-1.19-3.06v-9.69a4.06 4.06 0 0 1 4-4.08h13.47v-28.22a4.08 4.08 0 0 1 1.11-2.89 3.84 3.84 0 0 1 3-1.19H457a4.06 4.06 0 0 1 4.08 4v28.3h21.22a4.06 4.06 0 0 1 4.08 4v9.73a4.15 4.15 0 0 1-1.19 3.06 4 4 0 0 1-2.89 1.19H461V261q0 7 2.47 10.88t8.58 3.91h11.73a4.06 4.06 0 0 1 4.08 4v10.58a4.06 4.06 0 0 1-4 4.08H470Zm65.81 1.7a33.46 33.46 0 0 1-17.94-4.68 30.54 30.54 0 0 1-11.64-13.26q-4.08-8.58-4.08-20.31v-47.77a4.06 4.06 0 0 1 4-4.08h15a3.88 3.88 0 0 1 3 1.19 4.08 4.08 0 0 1 1.11 2.89v46.75q0 21.07 18.53 21.08 8.83 0 14-5.61t5.19-15.47v-46.75a4.06 4.06 0 0 1 4-4.08h15a4.06 4.06 0 0 1 4.08 4v80.28a4.06 4.06 0 0 1-4 4.08h-13.9a3.88 3.88 0 0 1-3-1.19 4.07 4.07 0 0 1-1.1-2.89v-7a32.7 32.7 0 0 1-11.39 9.35q-6.67 3.46-16.86 3.47m105.57 0a38.1 38.1 0 0 1-15.56-3 29.35 29.35 0 0 1-11.13-8.41 39 39 0 0 1-6.8-12.84 60 60 0 0 1-2.72-16.23c-.12-2-.17-3.88-.17-5.53s0-3.48.17-5.52a60.2 60.2 0 0 1 2.63-15.81 38.5 38.5 0 0 1 6.8-12.86 30.6 30.6 0 0 1 11.22-8.58 37.15 37.15 0 0 1 15.56-3.06 35 35 0 0 1 15.55 3.14 33.4 33.4 0 0 1 10.63 8.08v-37.7a4.07 4.07 0 0 1 1.1-2.89 3.88 3.88 0 0 1 3-1.19h14.45a4.06 4.06 0 0 1 4.08 4v112.62a4.06 4.06 0 0 1-4 4.08h-13.53a3.88 3.88 0 0 1-3-1.19 4.07 4.07 0 0 1-1.1-2.89v-6.29a33.6 33.6 0 0 1-10.8 8.67q-6.53 3.39-16.38 3.4m6.29-18.2q7.14 0 11.39-3.23a19.26 19.26 0 0 0 6.29-8.25 29.7 29.7 0 0 0 2.21-10.27q.16-3.06.17-6.55t-.17-6.54a24.9 24.9 0 0 0-2.38-9.78 19.94 19.94 0 0 0-6.46-7.73q-4.26-3.06-11-3.06-7.14 0-11.31 3.14a17.7 17.7 0 0 0-6 8.25 38.4 38.4 0 0 0-2.21 11.22q-.18 5.1 0 10.2a38.4 38.4 0 0 0 2.21 11.22 17.6 17.6 0 0 0 6 8.24q4.13 3.13 11.26 3.14m68.5-86.52a4.06 4.06 0 0 1-4.08-4v-12.32a4.06 4.06 0 0 1 4-4.08h15.51a4.15 4.15 0 0 1 3.06 1.19 3.92 3.92 0 0 1 1.19 2.89v12.24a3.92 3.92 0 0 1-1.19 2.89 4.15 4.15 0 0 1-3.06 1.19Zm.68 103a4.06 4.06 0 0 1-4.08-4v-80.3a4.06 4.06 0 0 1 4-4.08H731a3.88 3.88 0 0 1 3 1.19 4.1 4.1 0 0 1 1.1 2.89v80.24a4.1 4.1 0 0 1-1.1 2.89 3.88 3.88 0 0 1-3 1.19Zm80.41 1.72q-13.6 0-22.86-4.76A33 33 0 0 1 760.29 278a46.5 46.5 0 0 1-5.53-20.23c-.11-2-.16-4.53-.17-7.48s0-5.44.17-7.48a44.75 44.75 0 0 1 5.7-20.32 34.16 34.16 0 0 1 14.28-13.34q9.25-4.75 22.52-4.76t22.53 4.76a34.34 34.34 0 0 1 14.28 13.34 45 45 0 0 1 5.69 20.32c.11 2 .16 4.53.17 7.48s0 5.44-.17 7.48a46.34 46.34 0 0 1-5.52 20.23 33 33 0 0 1-14.11 13.43q-9.27 4.77-22.87 4.77m0-16.83q9 0 13.94-5.7t5.44-16.74q.17-2.55.17-6.63t-.17-6.63q-.51-11.05-5.44-16.75t-13.94-5.66q-9 0-13.94 5.69t-5.44 16.75q-.17 2.55-.17 6.63t.17 6.63q.51 11.06 5.44 16.74t13.94 5.67" style="fill:#1e293b"/></svg>